<?xml version="1.0" encoding="utf-8"?>
<!-- Generator: Adobe Illustrator 27.7.0, SVG Export Plug-In . SVG Version: 6.00 Build 0)  -->
<svg version="1.1" id="Layer_1" xmlns="http://www.w3.org/2000/svg" xmlns:xlink="http://www.w3.org/1999/xlink" x="0px" y="0px"
	 viewBox="0 0 668.56 58.47" style="enable-background:new 0 0 668.56 58.47;" xml:space="preserve">
<style type="text/css">
	.st0{display:none;}
	.st1{fill:none;}
	.st2{font-family:'LinLibertine';}
	.st3{font-size:20px;}
	.st4{letter-spacing:4;}
</style>
<path class="st0" d="M645.77,18.92c0,0.26,0.16,0.39,0.49,0.39h0.23c0.05,0,0.08,0.03,0.08,0.08v0.22l-0.02,0.02
	c-0.69-0.01-1.15-0.02-1.37-0.02l-1.35,0.02l-0.02-0.02V19.4c0-0.05,0.03-0.08,0.09-0.08h0.23c0.34,0,0.51-0.13,0.51-0.39v-4.38
	c0-0.22-0.08-0.33-0.23-0.33h-0.84c-0.18,0-0.31,0.05-0.39,0.15c-0.08,0.1-0.17,0.33-0.25,0.69l-0.36-0.1l0.31-1.48l0.4,0.13
	c0,0.01-0.01,0.03-0.02,0.07c-0.01,0.04-0.02,0.06-0.02,0.09l-0.01,0.03h3.84l-0.01-0.03c-0.01-0.02-0.01-0.05-0.02-0.08
	c-0.01-0.04-0.01-0.06-0.01-0.07l0.41-0.13l0.31,1.5l-0.38,0.08c-0.1-0.36-0.19-0.6-0.27-0.69c-0.08-0.1-0.21-0.15-0.39-0.15H646
	c-0.09,0-0.15,0.02-0.18,0.06c-0.04,0.04-0.05,0.14-0.05,0.28V18.92z M653.47,18.87l-0.27-3.25l-1.64,4.01
	c-0.03,0.11-0.12,0.16-0.27,0.16c-0.12,0-0.22-0.05-0.28-0.16c-0.66-1.57-1.21-2.88-1.65-3.93c-0.09,1.4-0.16,2.46-0.22,3.19v0.1
	c0,0.25,0.04,0.38,0.11,0.38h0.25c0.19,0,0.28,0.04,0.28,0.11v0.14l-0.06,0.1c-0.43-0.02-0.76-0.03-1-0.03l-0.78,0.03l-0.08-0.1
	v-0.14c0-0.07,0.1-0.11,0.3-0.11h0.23c0.07,0,0.13-0.17,0.18-0.5c0.03-0.45,0.09-1.17,0.16-2.17c0.08-1,0.13-1.73,0.17-2.22v-0.05
	v-0.04c0-0.19-0.05-0.28-0.15-0.27h-0.27c-0.19-0.01-0.28-0.05-0.28-0.1v-0.13l0.08-0.1h1.47l1.84,4.37
	c0.11-0.26,0.37-0.92,0.8-1.97c0.43-1.05,0.75-1.85,0.97-2.4h1.35l0.05,0.1v0.13c0,0.06-0.09,0.1-0.28,0.1h-0.24
	c-0.1,0-0.15,0.09-0.15,0.26v0.1l0.38,4.38c0.04,0.33,0.11,0.49,0.2,0.5h0.23c0.21,0,0.31,0.04,0.31,0.11v0.14l-0.1,0.1
	c-0.48-0.02-0.84-0.03-1.07-0.03l-1.09,0.03l-0.1-0.1v-0.14c0-0.07,0.09-0.11,0.27-0.11h0.23c0.06,0,0.1-0.13,0.1-0.38V18.87z"/>
<g>
	<path d="M34.19,38.11c-0.03,0.26-0.07,0.49-0.12,0.69c-0.05,0.2,0.02,0.37,0.23,0.51c0.21,0.14,0.37,0.24,0.49,0.32
		c0.12,0.08,0.34,0.15,0.67,0.21c0.33,0.07,0.59,0.1,0.77,0.12c0.19,0.01,0.44,0.04,0.77,0.08c0.11,0.14,0.16,0.4,0.16,0.75
		c0,0.36-0.05,0.6-0.16,0.71c-2.01-0.06-3.74-0.09-5.19-0.09c-0.41,0-1.62,0.03-3.63,0.09c-0.13-0.12-0.2-0.35-0.2-0.71
		c0-0.36,0.07-0.61,0.2-0.75c1.03-0.08,1.84-0.29,2.44-0.63c0.59-0.34,1.14-1.09,1.62-2.25l9.22-21.64c0.59,0,1.34-0.27,2.24-0.81
		l8.37,23.1c0.16,0.49,0.35,0.88,0.58,1.17c0.23,0.3,0.55,0.52,0.95,0.66c0.4,0.14,0.71,0.23,0.91,0.26c0.21,0.03,0.6,0.07,1.2,0.14
		c0.13,0.14,0.2,0.4,0.2,0.75c0,0.36-0.07,0.6-0.2,0.71c-2.01-0.06-3.55-0.09-4.64-0.09c-1.54,0-3.32,0.03-5.31,0.09
		c-0.11-0.12-0.16-0.35-0.16-0.71c0-0.36,0.05-0.61,0.16-0.75c0.16,0,0.37-0.01,0.62-0.03c0.26-0.02,0.46-0.04,0.59-0.05
		c0.14-0.01,0.32-0.03,0.54-0.06c0.22-0.03,0.38-0.05,0.49-0.08c0.1-0.03,0.23-0.07,0.38-0.12c0.15-0.05,0.25-0.12,0.31-0.2
		c0.06-0.08,0.11-0.17,0.15-0.28c0.04-0.11,0.05-0.23,0.04-0.36s-0.05-0.29-0.1-0.47l-2.36-6.77h-8.56c-0.49,0-0.82,0.05-1,0.15
		c-0.18,0.1-0.32,0.28-0.43,0.54L34.19,38.11z M38.59,29.93h7.17l-3.81-11.04h-0.26l-4.14,10.5c-0.04,0.08-0.05,0.15-0.04,0.22
		s0.04,0.12,0.08,0.16c0.04,0.04,0.11,0.07,0.2,0.1c0.09,0.03,0.2,0.04,0.33,0.05C38.25,29.93,38.41,29.93,38.59,29.93z"/>
	<path d="M90.87,20.71c0-0.94-0.04-1.66-0.13-2.15c-0.09-0.49-0.29-0.88-0.61-1.16c-0.33-0.28-0.66-0.46-1.01-0.54
		c-0.35-0.08-0.94-0.16-1.77-0.24c-0.13-0.11-0.2-0.35-0.21-0.71c-0.01-0.36,0.06-0.61,0.21-0.76c2.71,0.06,4.21,0.09,4.5,0.09
		c0.38,0,1.9-0.03,4.54-0.09c0.11,0.14,0.16,0.39,0.16,0.75c0,0.35-0.05,0.59-0.16,0.72c-1.52,0.16-2.49,0.45-2.9,0.87
		c-0.42,0.43-0.62,1.49-0.62,3.21v19.77c0,0.9-0.31,1.35-0.93,1.35c-0.59,0-1.14-0.35-1.62-1.04L76.12,23.01
		c-0.7-0.89-1.16-1.33-1.38-1.32c-0.22,0.01-0.33,0.66-0.33,1.97v12.29c0,0.94,0.04,1.66,0.13,2.15c0.09,0.49,0.29,0.88,0.61,1.16
		c0.32,0.28,0.66,0.46,1.01,0.54c0.35,0.08,0.94,0.16,1.77,0.26c0.1,0.14,0.16,0.4,0.17,0.75c0.01,0.36-0.05,0.6-0.17,0.71
		c-2.71-0.06-4.21-0.09-4.5-0.09c-0.38,0-1.9,0.03-4.54,0.09c-0.13-0.12-0.2-0.35-0.21-0.71c-0.01-0.36,0.06-0.61,0.21-0.75
		c1.52-0.16,2.49-0.45,2.9-0.88c0.42-0.43,0.62-1.5,0.62-3.22V19.2c-0.13-0.59-0.5-1.15-1.09-1.69c-0.6-0.54-1.3-0.83-2.12-0.88
		c-0.13-0.11-0.2-0.35-0.2-0.71c0-0.36,0.07-0.61,0.2-0.76l5.49,0.08l13.91,17.87c0.18,0.24,0.39,0.51,0.6,0.81
		c0.22,0.3,0.38,0.52,0.5,0.65c0.11,0.13,0.23,0.26,0.35,0.4c0.12,0.14,0.22,0.23,0.3,0.28c0.08,0.05,0.14,0.08,0.2,0.08
		c0.18,0,0.28-0.41,0.3-1.22V20.71z"/>
	<path d="M124.59,36.34c0,1.62,0.23,2.63,0.68,3.02c0.46,0.39,1.53,0.62,3.23,0.68c0.13,0.14,0.2,0.4,0.21,0.75
		c0.01,0.36-0.06,0.6-0.21,0.71c-2.71-0.06-4.59-0.09-5.64-0.09c-1.14,0-3.04,0.03-5.71,0.09c-0.08-0.12-0.12-0.35-0.12-0.71
		c0-0.36,0.05-0.61,0.16-0.75c1.69-0.05,2.76-0.28,3.22-0.67c0.46-0.4,0.69-1.41,0.69-3.03V20.73c0-1.32-0.14-2.32-0.43-3
		c-0.28-0.68-0.78-1.02-1.5-1.02h-1.98c-1.4,0-2.55,0.33-3.45,1c-0.9,0.67-1.53,1.81-1.9,3.42c-0.57,0-1.03-0.07-1.39-0.2
		c0.54-2.33,0.88-4.29,1.01-5.89c0-0.08,0.06-0.12,0.18-0.12c2.74,0.21,5.89,0.32,9.46,0.32h3.49c3.6,0,6.63-0.11,9.11-0.32
		c0.08,0,0.12,0.04,0.12,0.12c0.03,1.72,0.2,3.65,0.52,5.77c-0.3,0.13-0.76,0.2-1.37,0.2c-0.33-1.56-0.95-2.67-1.87-3.32
		c-0.92-0.65-2.17-0.98-3.77-0.98h-0.89c-0.7,0-1.18,0.34-1.45,1.03c-0.27,0.69-0.41,1.72-0.41,3.11V36.34z"/>
	<path d="M155.5,36.38c0,1.61,0.21,2.61,0.63,2.99c0.42,0.39,1.39,0.61,2.89,0.68c0.1,0.14,0.16,0.4,0.17,0.75
		c0.01,0.36-0.05,0.6-0.17,0.71c-2.71-0.06-4.46-0.09-5.25-0.09c-0.87,0-2.62,0.03-5.25,0.09c-0.13-0.12-0.2-0.35-0.2-0.71
		c0-0.36,0.07-0.61,0.2-0.75c1.5-0.05,2.46-0.27,2.87-0.67c0.41-0.39,0.62-1.39,0.62-3V20.28c0-1.61-0.21-2.61-0.62-2.99
		c-0.41-0.39-1.37-0.6-2.87-0.66c-0.13-0.11-0.2-0.35-0.2-0.71c0-0.36,0.07-0.61,0.2-0.76c2.7,0.06,4.44,0.09,5.21,0.09
		c0.88,0,2.65-0.03,5.29-0.09c0.1,0.14,0.16,0.39,0.17,0.75c0.01,0.35-0.05,0.59-0.17,0.72c-1.52,0.05-2.49,0.27-2.9,0.66
		c-0.42,0.38-0.62,1.38-0.62,2.99V36.38z"/>
	<path d="M198.97,28.11c0,3.37-0.84,6.24-2.52,8.61c-1.93,2.7-4.57,4.34-7.91,4.92c-1.78,0.5-3.55,1.39-5.31,2.68
		c0.29-0.04,0.56-0.06,0.79-0.06c1.57,0,3.58,0.55,6.01,1.66c2.44,1.11,4.21,1.66,5.32,1.66c1.54,0,2.72-0.5,3.53-1.49l0.69,0.48
		c-1.54,2.22-3.5,3.33-5.85,3.33c-1.19,0-2.36-0.2-3.51-0.6c-1.15-0.4-2.11-0.84-2.87-1.32c-0.76-0.47-1.61-0.92-2.56-1.33
		c-0.94-0.41-1.84-0.61-2.68-0.61c-0.44,0-0.91,0.17-1.43,0.51c-0.55,0.59-1.06,1.22-1.53,1.88l-1.58-0.81
		c0.09-0.16,0.2-0.32,0.32-0.48c0.12-0.16,0.25-0.31,0.4-0.46c1.69-2.03,3.75-3.69,6.18-4.96c-3.18-0.38-5.82-1.73-7.91-4.05
		c-2.09-2.32-3.13-5.26-3.13-8.81c0-3.59,0.92-6.66,2.78-9.2c1.14-1.56,2.54-2.78,4.21-3.66c1.67-0.87,3.5-1.31,5.48-1.31
		c3.77,0,6.88,1.21,9.36,3.63C197.73,20.76,198.97,24.02,198.97,28.11z M185.37,16.18c-0.98,0-1.92,0.24-2.84,0.71
		c-0.92,0.47-1.77,1.17-2.56,2.08c-0.79,0.92-1.42,2.18-1.91,3.78c-0.49,1.61-0.73,3.42-0.73,5.43c0,3.73,0.95,6.7,2.84,8.93
		c1.9,2.23,4.16,3.34,6.79,3.34c2.38,0,4.32-1.05,5.84-3.14c1.51-2.09,2.27-4.91,2.27-8.43c0-3.96-0.92-7.07-2.76-9.32
		C190.47,17.3,188.16,16.18,185.37,16.18z"/>
	<path d="M219.61,20.3v10.25c0,1.13,0.03,2.06,0.08,2.79c0.05,0.73,0.24,1.56,0.57,2.5c0.33,0.94,0.81,1.7,1.43,2.3
		c1.4,1.34,3,2.02,4.81,2.03c1.32,0,2.45-0.21,3.4-0.63c0.95-0.42,1.68-0.93,2.2-1.54c0.51-0.6,0.92-1.39,1.22-2.35
		c0.3-0.96,0.48-1.83,0.55-2.62c0.07-0.79,0.1-1.72,0.1-2.8V20.3c0-0.87-0.04-1.52-0.12-1.96c-0.08-0.44-0.29-0.78-0.64-1.03
		c-0.35-0.24-0.7-0.4-1.06-0.46c-0.36-0.07-0.99-0.14-1.9-0.22c-0.1-0.11-0.16-0.35-0.16-0.71c0-0.36,0.05-0.61,0.16-0.76
		c2.71,0.06,4.27,0.09,4.69,0.09c0.11,0,1.49-0.03,4.14-0.09c0.11,0.14,0.16,0.39,0.16,0.75c0,0.35-0.05,0.59-0.16,0.72
		c-0.98,0.1-1.64,0.22-1.97,0.34c-0.34,0.12-0.61,0.43-0.82,0.93c-0.21,0.5-0.32,1.3-0.32,2.41v9.21c0,1.91-0.15,3.57-0.45,4.98
		c-0.3,1.41-0.82,2.69-1.56,3.84c-0.75,1.14-1.81,2.01-3.19,2.61c-1.38,0.59-3.08,0.89-5.12,0.89c-1.06,0-2.08-0.14-3.07-0.42
		c-0.99-0.28-2-0.76-3.03-1.43c-1.03-0.67-1.86-1.7-2.49-3.09c-0.62-1.39-0.93-3.05-0.93-4.98V20.3c0-1.59-0.19-2.59-0.58-2.99
		c-0.38-0.4-1.22-0.63-2.51-0.68c-0.1-0.11-0.16-0.35-0.16-0.71c0-0.36,0.05-0.61,0.16-0.76c2.7,0.06,4.3,0.09,4.82,0.09
		c1.01,0,2.84-0.03,5.51-0.09c0.08,0.14,0.12,0.39,0.12,0.75c0,0.35-0.05,0.59-0.16,0.72c-1.61,0.05-2.63,0.27-3.06,0.66
		C219.82,17.68,219.61,18.69,219.61,20.3z"/>
	<path d="M263.67,26.84c1.65,0,2.66-0.16,3.03-0.5c0.38-0.33,0.59-1.11,0.64-2.33c0.1-0.13,0.32-0.2,0.65-0.2
		c0.33,0,0.56,0.07,0.69,0.2c-0.05,1.64-0.08,2.82-0.08,3.54c0,0.49,0.03,1.68,0.08,3.56c-0.13,0.15-0.36,0.23-0.68,0.23
		c-0.32,0-0.55-0.07-0.66-0.2c-0.05-0.74-0.13-1.27-0.24-1.6c-0.1-0.32-0.43-0.61-0.97-0.86c-0.54-0.25-1.36-0.37-2.47-0.37h-3.68
		v9.89c0,1.18,0.48,1.76,1.44,1.76h5.51c2.57,0,4.33-1.79,5.29-5.37c0.49-0.11,0.96-0.04,1.43,0.2c-0.33,2.12-0.83,4.36-1.51,6.71
		c-2.16-0.05-3.89-0.08-5.18-0.08h-8.71c-2.19,0.03-3.94,0.05-5.27,0.08c-0.11-0.12-0.16-0.35-0.16-0.71c0-0.36,0.05-0.61,0.16-0.75
		c1.5-0.05,2.46-0.27,2.88-0.67c0.42-0.39,0.63-1.39,0.63-3V20.28c0-1.61-0.21-2.61-0.63-2.99c-0.42-0.39-1.39-0.6-2.91-0.66
		c-0.11-0.12-0.16-0.35-0.16-0.72c0-0.36,0.05-0.61,0.16-0.75l5.25,0.08h10.35c0.7,0,1.36-0.05,1.98-0.16
		c0.11,0,0.16,0.04,0.16,0.12c0.21,0.92,0.52,2.86,0.91,5.83c-0.44,0.22-0.89,0.28-1.35,0.2c-0.51-1.66-1.05-2.83-1.62-3.51
		c-0.57-0.68-1.55-1.01-2.94-1.01h-4.27c-0.46,0-0.82,0.17-1.07,0.52s-0.38,0.78-0.38,1.31v8.3H263.67z"/>
	<path d="M323.64,41.82c-2.75,0-5.12-0.65-7.1-1.96c-1.99-1.31-3.43-2.94-4.34-4.89s-1.36-4.07-1.36-6.34
		c0-4.35,1.41-7.84,4.24-10.47c2.47-2.3,5.34-3.44,8.6-3.44c1.94,0,3.85,0.29,5.7,0.88c1.86,0.59,2.93,0.89,3.2,0.92
		c0.46,2.85,0.76,4.94,0.89,6.29c-0.51,0.26-0.96,0.33-1.35,0.2c-1.38-4.55-4.34-6.83-8.89-6.83c-2.37,0-4.53,1.2-6.49,3.61
		c-0.77,0.94-1.36,2.09-1.79,3.45c-0.42,1.36-0.64,2.9-0.64,4.61c0,2.09,0.32,4.04,0.97,5.86c0.65,1.81,1.69,3.35,3.13,4.6
		c1.44,1.25,3.16,1.88,5.16,1.88c1.89,0,3.58-0.35,5.06-1.04c1.48-0.69,2.94-1.83,4.36-3.41c0.41,0,0.72,0.21,0.93,0.62
		C331.16,40,327.73,41.82,323.64,41.82z"/>
	<path d="M354.02,38.11c-0.03,0.26-0.07,0.49-0.12,0.69c-0.05,0.2,0.02,0.37,0.23,0.51c0.21,0.14,0.37,0.24,0.49,0.32
		c0.12,0.08,0.34,0.15,0.67,0.21c0.33,0.07,0.59,0.1,0.77,0.12c0.19,0.01,0.44,0.04,0.77,0.08c0.11,0.14,0.16,0.4,0.16,0.75
		c0,0.36-0.05,0.6-0.16,0.71c-2.01-0.06-3.74-0.09-5.19-0.09c-0.41,0-1.62,0.03-3.63,0.09c-0.13-0.12-0.2-0.35-0.2-0.71
		c0-0.36,0.07-0.61,0.2-0.75c1.03-0.08,1.84-0.29,2.44-0.63c0.59-0.34,1.14-1.09,1.62-2.25l9.22-21.64c0.59,0,1.34-0.27,2.24-0.81
		l8.37,23.1c0.16,0.49,0.35,0.88,0.58,1.17c0.23,0.3,0.55,0.52,0.95,0.66c0.4,0.14,0.71,0.23,0.91,0.26c0.21,0.03,0.6,0.07,1.2,0.14
		c0.13,0.14,0.2,0.4,0.2,0.75c0,0.36-0.07,0.6-0.2,0.71c-2.01-0.06-3.55-0.09-4.64-0.09c-1.54,0-3.32,0.03-5.31,0.09
		c-0.11-0.12-0.16-0.35-0.16-0.71c0-0.36,0.05-0.61,0.16-0.75c0.16,0,0.37-0.01,0.62-0.03c0.26-0.02,0.46-0.04,0.59-0.05
		s0.32-0.03,0.54-0.06c0.22-0.03,0.38-0.05,0.49-0.08c0.1-0.03,0.23-0.07,0.38-0.12c0.15-0.05,0.25-0.12,0.31-0.2
		c0.06-0.08,0.11-0.17,0.15-0.28c0.04-0.11,0.05-0.23,0.04-0.36s-0.05-0.29-0.1-0.47l-2.36-6.77h-8.56c-0.49,0-0.82,0.05-1,0.15
		c-0.18,0.1-0.32,0.28-0.43,0.54L354.02,38.11z M358.42,29.93h7.17l-3.81-11.04h-0.26l-4.14,10.5c-0.04,0.08-0.05,0.15-0.04,0.22
		s0.04,0.12,0.08,0.16c0.04,0.04,0.11,0.07,0.2,0.1c0.09,0.03,0.2,0.04,0.33,0.05C358.08,29.93,358.24,29.93,358.42,29.93z"/>
	<path d="M410.69,20.71c0-0.94-0.04-1.66-0.13-2.15c-0.09-0.49-0.29-0.88-0.61-1.16c-0.33-0.28-0.66-0.46-1.01-0.54
		c-0.35-0.08-0.94-0.16-1.77-0.24c-0.13-0.11-0.2-0.35-0.21-0.71c-0.01-0.36,0.06-0.61,0.21-0.76c2.71,0.06,4.21,0.09,4.5,0.09
		c0.38,0,1.9-0.03,4.54-0.09c0.11,0.14,0.16,0.39,0.16,0.75c0,0.35-0.05,0.59-0.16,0.72c-1.52,0.16-2.49,0.45-2.9,0.87
		c-0.42,0.43-0.62,1.49-0.62,3.21v19.77c0,0.9-0.31,1.35-0.93,1.35c-0.59,0-1.14-0.35-1.62-1.04l-14.17-17.78
		c-0.7-0.89-1.16-1.33-1.38-1.32c-0.22,0.01-0.33,0.66-0.33,1.97v12.29c0,0.94,0.04,1.66,0.13,2.15c0.09,0.49,0.29,0.88,0.61,1.16
		c0.32,0.28,0.66,0.46,1.01,0.54c0.35,0.08,0.94,0.16,1.77,0.26c0.1,0.14,0.16,0.4,0.17,0.75c0.01,0.36-0.05,0.6-0.17,0.71
		c-2.71-0.06-4.21-0.09-4.5-0.09c-0.38,0-1.9,0.03-4.54,0.09c-0.13-0.12-0.2-0.35-0.21-0.71c-0.01-0.36,0.06-0.61,0.21-0.75
		c1.52-0.16,2.49-0.45,2.9-0.88c0.42-0.43,0.62-1.5,0.62-3.22V19.2c-0.13-0.59-0.5-1.15-1.09-1.69c-0.6-0.54-1.3-0.83-2.12-0.88
		c-0.13-0.11-0.2-0.35-0.2-0.71c0-0.36,0.07-0.61,0.2-0.76l5.49,0.08l13.91,17.87c0.18,0.24,0.39,0.51,0.6,0.81
		c0.22,0.3,0.38,0.52,0.5,0.65s0.23,0.26,0.35,0.4c0.12,0.14,0.22,0.23,0.3,0.28c0.08,0.05,0.14,0.08,0.2,0.08
		c0.18,0,0.28-0.41,0.3-1.22V20.71z"/>
	<path d="M435.65,15.25c0.44,0,1.43-0.01,2.97-0.04c1.54-0.03,2.79-0.04,3.74-0.04c3.89,0,7.2,1.34,9.92,4.03
		c2.72,2.69,4.08,5.93,4.08,9.72c0,2.38-0.41,4.43-1.24,6.16c-0.82,1.73-1.92,3.03-3.29,3.93c-1.37,0.89-2.77,1.53-4.22,1.92
		c-1.45,0.39-2.95,0.59-4.52,0.59c-1.63,0-3.2-0.01-4.71-0.04s-2.41-0.04-2.69-0.04c-0.87,0-2.62,0.03-5.25,0.08
		c-0.13-0.11-0.2-0.34-0.2-0.68s0.07-0.59,0.2-0.72c1.5-0.05,2.46-0.27,2.87-0.67c0.41-0.39,0.62-1.4,0.62-3.01V20.26
		c0-1.61-0.21-2.62-0.62-3c-0.41-0.39-1.37-0.61-2.87-0.66c-0.13-0.11-0.2-0.34-0.2-0.69c0-0.35,0.07-0.59,0.2-0.73
		C433.14,15.22,434.88,15.25,435.65,15.25z M437.42,37.99c0,0.72,0.28,1.24,0.83,1.56c0.55,0.32,1.75,0.48,3.58,0.48
		c1.54,0,2.91-0.16,4.1-0.46c1.19-0.31,2.3-0.82,3.33-1.55c1.03-0.72,1.82-1.77,2.37-3.14c0.55-1.37,0.83-3.04,0.83-5.01
		c0-1.64-0.2-3.21-0.6-4.71c-0.4-1.5-1.04-2.91-1.91-4.23c-0.87-1.32-2.09-2.37-3.65-3.14c-1.56-0.77-3.39-1.16-5.47-1.16
		c-2.27,0-3.4,0.66-3.4,1.97V37.99z"/>
	<path d="M476.23,41.43c-2.19,0.03-3.94,0.05-5.25,0.08c-0.13-0.12-0.2-0.35-0.2-0.71c0-0.36,0.07-0.61,0.2-0.75
		c1.5-0.05,2.46-0.27,2.87-0.67c0.41-0.39,0.62-1.39,0.62-3V20.28c0-1.61-0.21-2.61-0.62-2.99c-0.41-0.39-1.37-0.6-2.87-0.66
		c-0.13-0.11-0.2-0.35-0.2-0.71c0-0.36,0.07-0.61,0.2-0.76c2.7,0.06,4.44,0.09,5.21,0.09c0.87,0,2.64-0.03,5.29-0.09
		c0.08,0.14,0.13,0.39,0.13,0.75c0,0.35-0.05,0.59-0.16,0.72c-1.5,0.05-2.46,0.27-2.87,0.66c-0.41,0.39-0.62,1.4-0.62,3.02v17.62
		c0,0.62,0.17,1.11,0.5,1.48c0.34,0.36,0.8,0.55,1.4,0.55h2.97c1.98,0,3.46-0.47,4.44-1.4c0.98-0.93,1.71-2.24,2.17-3.91
		c0.46-0.08,0.9-0.01,1.33,0.2c-0.26,2.31-0.61,4.53-1.05,6.66c-2.5-0.05-4.11-0.08-4.84-0.08H476.23z"/>
	<path d="M514.88,26.84c1.65,0,2.66-0.16,3.03-0.5c0.38-0.33,0.59-1.11,0.64-2.33c0.1-0.13,0.32-0.2,0.65-0.2
		c0.33,0,0.56,0.07,0.69,0.2c-0.05,1.64-0.08,2.82-0.08,3.54c0,0.49,0.03,1.68,0.08,3.56c-0.13,0.15-0.36,0.23-0.68,0.23
		s-0.55-0.07-0.66-0.2c-0.05-0.74-0.13-1.27-0.24-1.6c-0.1-0.32-0.43-0.61-0.97-0.86c-0.54-0.25-1.36-0.37-2.47-0.37h-3.68v9.89
		c0,1.18,0.48,1.76,1.44,1.76h5.51c2.57,0,4.33-1.79,5.29-5.37c0.49-0.11,0.96-0.04,1.43,0.2c-0.33,2.12-0.83,4.36-1.51,6.71
		c-2.16-0.05-3.89-0.08-5.18-0.08h-8.71c-2.19,0.03-3.94,0.05-5.27,0.08c-0.11-0.12-0.16-0.35-0.16-0.71c0-0.36,0.05-0.61,0.16-0.75
		c1.5-0.05,2.46-0.27,2.88-0.67c0.42-0.39,0.63-1.39,0.63-3V20.28c0-1.61-0.21-2.61-0.63-2.99c-0.42-0.39-1.39-0.6-2.91-0.66
		c-0.11-0.12-0.16-0.35-0.16-0.72c0-0.36,0.05-0.61,0.16-0.75l5.25,0.08h10.35c0.7,0,1.36-0.05,1.98-0.16
		c0.11,0,0.16,0.04,0.16,0.12c0.21,0.92,0.52,2.86,0.91,5.83c-0.44,0.22-0.89,0.28-1.35,0.2c-0.51-1.66-1.05-2.83-1.62-3.51
		c-0.57-0.68-1.55-1.01-2.94-1.01h-4.27c-0.46,0-0.82,0.17-1.07,0.52c-0.25,0.34-0.38,0.78-0.38,1.31v8.3H514.88z"/>
	<path d="M574.85,41.82c-2.75,0-5.12-0.65-7.1-1.96c-1.99-1.31-3.43-2.94-4.34-4.89s-1.36-4.07-1.36-6.34
		c0-4.35,1.41-7.84,4.24-10.47c2.47-2.3,5.34-3.44,8.6-3.44c1.94,0,3.85,0.29,5.7,0.88c1.86,0.59,2.93,0.89,3.2,0.92
		c0.46,2.85,0.76,4.94,0.89,6.29c-0.51,0.26-0.96,0.33-1.35,0.2c-1.38-4.55-4.34-6.83-8.89-6.83c-2.37,0-4.53,1.2-6.49,3.61
		c-0.77,0.94-1.36,2.09-1.79,3.45c-0.42,1.36-0.64,2.9-0.64,4.61c0,2.09,0.32,4.04,0.97,5.86c0.65,1.81,1.69,3.35,3.13,4.6
		c1.44,1.25,3.16,1.88,5.16,1.88c1.89,0,3.58-0.35,5.06-1.04s2.94-1.83,4.36-3.41c0.41,0,0.72,0.21,0.93,0.62
		C582.38,40,578.94,41.82,574.85,41.82z"/>
	<path d="M625.99,28.06c0,3.38-0.84,6.27-2.52,8.65c-1.14,1.63-2.59,2.89-4.35,3.78c-1.76,0.89-3.75,1.34-5.96,1.34
		c-3.57,0-6.58-1.19-9.03-3.57c-2.45-2.38-3.68-5.52-3.68-9.43c0-3.58,0.92-6.63,2.78-9.17c1.14-1.56,2.54-2.77,4.21-3.64
		c1.67-0.87,3.5-1.31,5.48-1.31c3.77,0,6.88,1.2,9.36,3.61C624.75,20.74,625.99,23.98,625.99,28.06z M612.39,16.18
		c-0.98,0-1.92,0.24-2.84,0.71c-0.92,0.47-1.77,1.16-2.56,2.08c-0.79,0.91-1.42,2.17-1.91,3.77c-0.49,1.6-0.73,3.4-0.73,5.41
		c0,3.71,0.95,6.68,2.84,8.89c1.9,2.22,4.16,3.33,6.79,3.33c2.38,0,4.32-1.04,5.84-3.13c1.51-2.08,2.27-4.89,2.27-8.4
		c0-3.95-0.92-7.04-2.76-9.29S615.18,16.18,612.39,16.18z"/>
	<path d="M641.38,41.2c-0.42-0.42-0.63-0.92-0.63-1.52c0-0.59,0.21-1.1,0.63-1.53c0.42-0.42,0.92-0.63,1.52-0.63
		c0.6,0,1.1,0.21,1.53,0.63c0.42,0.42,0.63,0.93,0.63,1.53c0,0.59-0.21,1.1-0.63,1.52c-0.42,0.42-0.93,0.62-1.53,0.62
		C642.3,41.82,641.8,41.62,641.38,41.2z"/>
</g>
<rect x="645.06" y="12.62" class="st1" width="15.79" height="18.9"/>
<text transform="matrix(1 0 0 1 645.0602 26.5789)" class="st2 st3 st4">®</text>
</svg>
