<?xml version="1.0" encoding="utf-8"?>
<!-- Generator: Adobe Illustrator 28.0.0, SVG Export Plug-In . SVG Version: 6.00 Build 0)  -->
<svg version="1.1" id="Layer_1" xmlns="http://www.w3.org/2000/svg" xmlns:xlink="http://www.w3.org/1999/xlink" x="0px" y="0px"
	 viewBox="0 0 630.15 43.37" style="enable-background:new 0 0 630.15 43.37;" xml:space="preserve">
<style type="text/css">
	.st0{fill:#FFFFFF;}
	.st1{display:none;fill:#FFFFFF;}
</style>
<g>
	<path class="st0" d="M32.39,29.47c-0.21-0.03-0.51-0.11-0.92-0.26c-0.41-0.15-0.72-0.37-0.96-0.66c-0.23-0.3-0.43-0.69-0.59-1.18
		L21.52,4.14c-0.9,0.54-1.65,0.82-2.25,0.82l-9.27,21.76c-0.49,1.16-1.04,1.92-1.63,2.26c-0.6,0.34-1.42,0.55-2.45,0.63
		c-0.13,0.15-0.2,0.4-0.2,0.76c0,0.36,0.07,0.6,0.2,0.72c2.02-0.06,3.23-0.09,3.65-0.09c1.46,0,3.2,0.03,5.22,0.09
		c0.11-0.12,0.16-0.36,0.16-0.72c0-0.36-0.05-0.61-0.16-0.76c-0.33-0.04-0.59-0.07-0.78-0.08c-0.19-0.01-0.44-0.05-0.78-0.12
		c-0.33-0.07-0.56-0.14-0.68-0.22c-0.12-0.08-0.28-0.19-0.49-0.32c-0.21-0.14-0.28-0.31-0.23-0.51c0.05-0.2,0.09-0.43,0.12-0.7
		l2.25-5.82c0.11-0.26,0.25-0.44,0.43-0.54c0.18-0.1,0.51-0.15,1.01-0.15h8.61l2.37,6.8c0.05,0.18,0.09,0.34,0.1,0.47
		c0.01,0.13,0,0.25-0.04,0.36c-0.04,0.11-0.09,0.21-0.15,0.28c-0.06,0.08-0.16,0.14-0.31,0.2c-0.15,0.05-0.27,0.09-0.38,0.12
		c-0.11,0.03-0.27,0.05-0.49,0.08c-0.22,0.03-0.4,0.05-0.54,0.06c-0.14,0.01-0.34,0.03-0.6,0.05c-0.26,0.02-0.47,0.03-0.63,0.03
		c-0.11,0.15-0.16,0.4-0.16,0.76c0,0.36,0.05,0.6,0.16,0.72c2.01-0.06,3.79-0.09,5.34-0.09c1.09,0,2.64,0.03,4.66,0.09
		c0.13-0.12,0.2-0.36,0.2-0.72c0-0.36-0.07-0.61-0.2-0.76C33,29.54,32.6,29.5,32.39,29.47z M16.38,19.44c-0.19,0-0.34,0-0.47-0.01
		c-0.13-0.01-0.24-0.02-0.33-0.05c-0.09-0.03-0.16-0.06-0.2-0.1c-0.04-0.04-0.07-0.09-0.08-0.16c-0.01-0.07,0-0.14,0.04-0.22
		l4.16-10.56h0.26l3.83,11.1H16.38z"/>
	<path class="st0" d="M69.92,4.68c-0.29,0-1.8-0.03-4.52-0.09c-0.15,0.14-0.22,0.4-0.21,0.76c0.01,0.36,0.08,0.6,0.21,0.72
		c0.84,0.08,1.43,0.16,1.78,0.24c0.35,0.08,0.69,0.26,1.02,0.54c0.32,0.28,0.53,0.67,0.62,1.16c0.09,0.49,0.13,1.21,0.13,2.16v13.48
		c-0.01,0.81-0.11,1.22-0.3,1.22c-0.05,0-0.12-0.03-0.2-0.08c-0.08-0.05-0.18-0.15-0.3-0.29c-0.12-0.14-0.24-0.27-0.35-0.4
		c-0.11-0.13-0.28-0.35-0.5-0.65c-0.22-0.3-0.42-0.58-0.61-0.81L52.7,4.68L47.18,4.6c-0.13,0.14-0.2,0.4-0.2,0.76
		c0,0.36,0.07,0.6,0.2,0.72c0.82,0.05,1.53,0.35,2.13,0.89c0.6,0.54,0.96,1.1,1.1,1.69v16.83c0,1.72-0.21,2.8-0.63,3.23
		c-0.42,0.43-1.39,0.73-2.92,0.89c-0.15,0.15-0.22,0.4-0.21,0.76c0.01,0.36,0.08,0.6,0.21,0.72c2.66-0.06,4.18-0.09,4.56-0.09
		c0.29,0,1.8,0.03,4.52,0.09c0.12-0.12,0.18-0.36,0.17-0.72c-0.01-0.36-0.06-0.61-0.17-0.76c-0.84-0.09-1.43-0.18-1.78-0.26
		c-0.35-0.08-0.69-0.26-1.02-0.54c-0.33-0.28-0.53-0.67-0.62-1.16c-0.09-0.49-0.13-1.21-0.13-2.16V13.13c0-1.31,0.11-1.97,0.33-1.98
		c0.22-0.01,0.68,0.44,1.38,1.33l14.25,17.88c0.49,0.7,1.04,1.05,1.63,1.05c0.62,0,0.94-0.45,0.94-1.35V10.17
		c0-1.72,0.21-2.79,0.63-3.22c0.42-0.43,1.39-0.72,2.92-0.88c0.11-0.13,0.16-0.37,0.16-0.73c0-0.36-0.05-0.6-0.16-0.75
		C71.83,4.65,70.3,4.68,69.92,4.68z"/>
	<path class="st0" d="M112.02,4.36c-2.49,0.21-5.54,0.32-9.16,0.32h-3.51c-3.59,0-6.76-0.11-9.51-0.32c-0.12,0-0.18,0.04-0.18,0.12
		c-0.13,1.61-0.47,3.58-1.02,5.92c0.36,0.13,0.82,0.2,1.4,0.2c0.37-1.62,1.01-2.77,1.91-3.44c0.9-0.67,2.06-1,3.47-1h1.99
		c0.72,0,1.22,0.34,1.5,1.03c0.29,0.68,0.43,1.69,0.43,3.02v15.69c0,1.63-0.23,2.65-0.69,3.05c-0.46,0.4-1.54,0.62-3.24,0.68
		c-0.1,0.15-0.16,0.4-0.16,0.76c0,0.36,0.04,0.6,0.12,0.72c2.68-0.06,4.59-0.09,5.74-0.09c1.05,0,2.94,0.03,5.67,0.09
		c0.15-0.12,0.22-0.36,0.21-0.72c-0.01-0.36-0.08-0.61-0.21-0.76c-1.71-0.07-2.79-0.3-3.25-0.69c-0.46-0.39-0.69-1.4-0.69-3.04
		V10.31c0-1.39,0.14-2.44,0.41-3.13c0.27-0.69,0.76-1.03,1.46-1.03h0.89c1.6,0,2.87,0.33,3.79,0.98c0.92,0.66,1.55,1.77,1.88,3.34
		c0.61,0,1.07-0.07,1.38-0.2c-0.32-2.13-0.49-4.07-0.52-5.8C112.14,4.4,112.1,4.36,112.02,4.36z"/>
	<path class="st0" d="M134.56,6.73c0.42-0.39,1.39-0.61,2.92-0.66c0.12-0.13,0.18-0.37,0.17-0.73c-0.01-0.36-0.06-0.6-0.17-0.75
		c-2.66,0.06-4.43,0.09-5.32,0.09c-0.78,0-2.53-0.03-5.24-0.09c-0.13,0.14-0.2,0.4-0.2,0.76c0,0.36,0.07,0.6,0.2,0.72
		c1.51,0.05,2.48,0.27,2.89,0.66c0.41,0.39,0.62,1.39,0.62,3.01v16.18c0,1.62-0.21,2.62-0.62,3.02c-0.41,0.39-1.38,0.62-2.89,0.67
		c-0.13,0.15-0.2,0.4-0.2,0.76c0,0.36,0.07,0.6,0.2,0.72c2.65-0.06,4.41-0.09,5.28-0.09c0.79,0,2.55,0.03,5.28,0.09
		c0.12-0.12,0.18-0.36,0.17-0.72c-0.01-0.36-0.06-0.61-0.17-0.76c-1.51-0.07-2.49-0.29-2.91-0.68c-0.43-0.39-0.64-1.39-0.64-3.01
		V9.74C133.93,8.12,134.14,7.12,134.56,6.73z"/>
	<path class="st0" d="M163.07,31.32c-2.45,1.28-4.52,2.94-6.22,4.98c-0.15,0.15-0.28,0.3-0.4,0.46c-0.12,0.16-0.23,0.32-0.32,0.48
		l1.59,0.82c0.47-0.66,0.98-1.3,1.53-1.89c0.52-0.34,1-0.52,1.44-0.52c0.85,0,1.75,0.21,2.7,0.62c0.95,0.41,1.81,0.86,2.57,1.33
		c0.76,0.48,1.72,0.92,2.88,1.33c1.16,0.4,2.33,0.61,3.53,0.61c2.37,0,4.33-1.12,5.88-3.35l-0.7-0.48c-0.81,1-1.99,1.49-3.55,1.49
		c-1.12,0-2.9-0.56-5.35-1.67c-2.45-1.12-4.47-1.67-6.05-1.67c-0.24,0-0.51,0.02-0.8,0.06c1.77-1.29,3.55-2.19,5.34-2.69
		c3.36-0.58,6.01-2.23,7.95-4.95c1.69-2.38,2.53-5.27,2.53-8.66c0-4.12-1.24-7.39-3.73-9.82c-2.49-2.43-5.62-3.65-9.41-3.65
		c-1.99,0-3.83,0.44-5.51,1.32c-1.68,0.88-3.09,2.11-4.23,3.68c-1.86,2.56-2.79,5.64-2.79,9.25c0,3.58,1.05,6.53,3.15,8.86
		C157.22,29.58,159.87,30.94,163.07,31.32z M156.61,12.23c0.49-1.62,1.13-2.88,1.92-3.8c0.79-0.92,1.65-1.62,2.57-2.1
		c0.92-0.48,1.88-0.72,2.86-0.72c2.8,0,5.13,1.13,6.98,3.4c1.85,2.26,2.77,5.39,2.77,9.38c0,3.55-0.76,6.38-2.28,8.48
		c-1.52,2.11-3.48,3.16-5.87,3.16c-2.64,0-4.92-1.12-6.83-3.36c-1.91-2.24-2.86-5.23-2.86-8.98
		C155.88,15.66,156.12,13.84,156.61,12.23z"/>
	<path class="st0" d="M194.3,6.76c0.39,0.4,0.58,1.4,0.58,3v11.66c0,1.95,0.31,3.62,0.94,5.01c0.63,1.4,1.46,2.43,2.5,3.11
		c1.04,0.67,2.06,1.16,3.05,1.44c0.99,0.28,2.02,0.43,3.09,0.43c2.04,0,3.76-0.3,5.15-0.89c1.39-0.6,2.46-1.47,3.21-2.62
		c0.75-1.15,1.27-2.44,1.57-3.86c0.3-1.42,0.45-3.09,0.45-5.01V9.76c0-1.11,0.11-1.92,0.32-2.42c0.21-0.5,0.49-0.81,0.83-0.93
		c0.34-0.12,1-0.23,1.98-0.34c0.11-0.13,0.16-0.37,0.16-0.73c0-0.36-0.05-0.6-0.16-0.75c-2.67,0.06-4.06,0.09-4.17,0.09
		c-0.42,0-2-0.03-4.72-0.09c-0.11,0.14-0.17,0.4-0.17,0.76c0,0.36,0.05,0.6,0.16,0.72c0.92,0.08,1.55,0.15,1.91,0.22
		c0.36,0.07,0.72,0.22,1.07,0.47c0.35,0.25,0.57,0.59,0.65,1.03c0.08,0.44,0.12,1.1,0.12,1.97v9.99c0,1.08-0.03,2.02-0.1,2.82
		c-0.07,0.79-0.25,1.67-0.55,2.64c-0.3,0.96-0.71,1.75-1.22,2.36c-0.52,0.61-1.25,1.12-2.21,1.55c-0.96,0.42-2.1,0.63-3.42,0.63
		c-1.82-0.01-3.43-0.69-4.84-2.04c-0.62-0.6-1.1-1.36-1.43-2.31c-0.33-0.95-0.52-1.79-0.58-2.52c-0.05-0.73-0.08-1.67-0.08-2.81
		V9.76c0-1.62,0.22-2.63,0.65-3.02c0.43-0.39,1.46-0.61,3.08-0.66c0.1-0.13,0.16-0.37,0.16-0.73c0-0.36-0.04-0.6-0.12-0.75
		c-2.68,0.06-4.52,0.09-5.54,0.09c-0.52,0-2.13-0.03-4.84-0.09c-0.11,0.14-0.16,0.4-0.16,0.76c0,0.36,0.05,0.6,0.16,0.72
		C193.08,6.13,193.92,6.35,194.3,6.76z"/>
	<path class="st0" d="M234.85,6.73c0.43,0.39,0.64,1.39,0.64,3.01v16.18c0,1.62-0.21,2.62-0.63,3.02s-1.39,0.62-2.9,0.67
		c-0.11,0.15-0.16,0.4-0.16,0.76c0,0.36,0.05,0.6,0.16,0.72c1.34-0.03,3.1-0.05,5.3-0.08h8.76c1.3,0,3.04,0.03,5.21,0.08
		c0.68-2.37,1.18-4.62,1.51-6.75c-0.47-0.24-0.94-0.31-1.43-0.2c-0.97,3.6-2.74,5.4-5.32,5.4h-5.54c-0.97,0-1.45-0.59-1.45-1.77
		v-9.95h3.7c1.11,0,1.94,0.13,2.48,0.38c0.54,0.25,0.87,0.54,0.97,0.86c0.11,0.33,0.19,0.86,0.24,1.61c0.12,0.14,0.34,0.2,0.67,0.2
		c0.33,0,0.55-0.08,0.69-0.23c-0.05-1.9-0.08-3.09-0.08-3.58c0-0.72,0.03-1.91,0.08-3.56c-0.13-0.13-0.37-0.2-0.7-0.2
		c-0.33,0-0.55,0.07-0.66,0.2c-0.05,1.23-0.27,2.02-0.65,2.35c-0.38,0.33-1.39,0.5-3.05,0.5H239V7.98c0-0.53,0.13-0.97,0.38-1.31
		s0.61-0.52,1.07-0.52h4.29c1.4,0,2.39,0.34,2.96,1.02c0.57,0.68,1.11,1.86,1.63,3.53c0.47,0.08,0.92,0.01,1.36-0.2
		c-0.4-2.98-0.7-4.94-0.92-5.86c0-0.08-0.05-0.12-0.16-0.12c-0.62,0.11-1.29,0.16-1.99,0.16h-10.4l-5.28-0.08
		c-0.11,0.14-0.16,0.39-0.16,0.76c0,0.36,0.05,0.6,0.16,0.72C233.45,6.13,234.43,6.35,234.85,6.73z"/>
	<path class="st0" d="M312.43,25.28c-1.44,1.58-2.9,2.73-4.39,3.43c-1.49,0.7-3.19,1.05-5.09,1.05c-2.01,0-3.74-0.63-5.19-1.89
		c-1.45-1.26-2.5-2.8-3.15-4.62c-0.65-1.82-0.98-3.79-0.98-5.89c0-1.72,0.21-3.26,0.64-4.63c0.43-1.37,1.02-2.53,1.8-3.47
		c1.97-2.42,4.14-3.63,6.52-3.63c4.58,0,7.55,2.29,8.94,6.87c0.39,0.13,0.84,0.07,1.35-0.2c-0.13-1.36-0.43-3.47-0.9-6.33
		c-0.28-0.03-1.35-0.33-3.22-0.93c-1.87-0.59-3.78-0.89-5.74-0.89c-3.27,0-6.15,1.15-8.64,3.46c-2.84,2.64-4.26,6.15-4.26,10.53
		c0,2.29,0.45,4.42,1.36,6.38c0.91,1.96,2.36,3.6,4.36,4.92c2,1.32,4.38,1.98,7.14,1.98c4.11,0,7.57-1.83,10.37-5.51
		C313.16,25.48,312.84,25.28,312.43,25.28z"/>
	<path class="st0" d="M348.12,29.08c-0.06,0.08-0.16,0.14-0.31,0.2c-0.15,0.05-0.27,0.09-0.38,0.12c-0.11,0.03-0.27,0.05-0.49,0.08
		c-0.22,0.03-0.4,0.05-0.54,0.06c-0.14,0.01-0.34,0.03-0.6,0.05c-0.26,0.02-0.47,0.03-0.63,0.03c-0.11,0.15-0.16,0.4-0.16,0.76
		c0,0.36,0.05,0.6,0.16,0.72c2.01-0.06,3.79-0.09,5.34-0.09c1.09,0,2.64,0.03,4.66,0.09c0.13-0.12,0.2-0.36,0.2-0.72
		c0-0.36-0.07-0.61-0.2-0.76c-0.6-0.07-1-0.11-1.21-0.14c-0.21-0.03-0.51-0.11-0.92-0.26c-0.41-0.15-0.72-0.37-0.96-0.66
		c-0.23-0.3-0.43-0.69-0.59-1.18l-8.41-23.23c-0.9,0.54-1.65,0.82-2.25,0.82l-9.27,21.76c-0.49,1.16-1.04,1.92-1.63,2.26
		c-0.6,0.34-1.42,0.55-2.45,0.63c-0.13,0.15-0.2,0.4-0.2,0.76c0,0.36,0.07,0.6,0.2,0.72c2.02-0.06,3.23-0.09,3.65-0.09
		c1.46,0,3.2,0.03,5.22,0.09c0.11-0.12,0.16-0.36,0.16-0.72c0-0.36-0.05-0.61-0.16-0.76c-0.33-0.04-0.59-0.07-0.78-0.08
		c-0.19-0.01-0.44-0.05-0.78-0.12c-0.33-0.07-0.56-0.14-0.68-0.22c-0.12-0.08-0.28-0.19-0.49-0.32c-0.21-0.14-0.28-0.31-0.23-0.51
		c0.05-0.2,0.09-0.43,0.12-0.7l2.25-5.82c0.11-0.26,0.25-0.44,0.43-0.54c0.18-0.1,0.51-0.15,1.01-0.15h8.61l2.37,6.8
		c0.05,0.18,0.09,0.34,0.1,0.47c0.01,0.13,0,0.25-0.04,0.36C348.23,28.91,348.18,29,348.12,29.08z M337.97,19.44
		c-0.19,0-0.34,0-0.47-0.01c-0.13-0.01-0.24-0.02-0.33-0.05c-0.09-0.03-0.16-0.06-0.2-0.1c-0.04-0.04-0.07-0.09-0.08-0.16
		c-0.01-0.07,0-0.14,0.04-0.22l4.16-10.56h0.26l3.83,11.1H337.97z"/>
	<path class="st0" d="M377.7,30.37c-0.01-0.36-0.06-0.61-0.17-0.76c-0.84-0.09-1.43-0.18-1.78-0.26c-0.35-0.08-0.69-0.26-1.02-0.54
		c-0.33-0.28-0.53-0.67-0.62-1.16c-0.09-0.49-0.13-1.21-0.13-2.16V13.13c0-1.31,0.11-1.97,0.33-1.98c0.22-0.01,0.68,0.44,1.38,1.33
		l14.25,17.88c0.49,0.7,1.04,1.05,1.63,1.05c0.62,0,0.94-0.45,0.94-1.35V10.17c0-1.72,0.21-2.79,0.63-3.22
		c0.42-0.43,1.39-0.72,2.92-0.88c0.11-0.13,0.16-0.37,0.16-0.73c0-0.36-0.05-0.6-0.16-0.75c-2.66,0.06-4.18,0.09-4.56,0.09
		c-0.29,0-1.8-0.03-4.52-0.09c-0.15,0.14-0.22,0.4-0.21,0.76c0.01,0.36,0.08,0.6,0.21,0.72c0.84,0.08,1.43,0.16,1.78,0.24
		c0.35,0.08,0.69,0.26,1.02,0.54c0.32,0.28,0.53,0.67,0.62,1.16c0.09,0.49,0.13,1.21,0.13,2.16v13.48c-0.01,0.81-0.11,1.22-0.3,1.22
		c-0.05,0-0.12-0.03-0.2-0.08c-0.08-0.05-0.18-0.15-0.3-0.29c-0.12-0.14-0.24-0.27-0.35-0.4c-0.11-0.13-0.28-0.35-0.5-0.65
		c-0.22-0.3-0.42-0.58-0.61-0.81L374.29,4.68l-5.52-0.08c-0.13,0.14-0.2,0.4-0.2,0.76c0,0.36,0.07,0.6,0.2,0.72
		c0.82,0.05,1.53,0.35,2.13,0.89c0.6,0.54,0.96,1.1,1.1,1.69v16.83c0,1.72-0.21,2.8-0.63,3.23c-0.42,0.43-1.39,0.73-2.92,0.89
		c-0.15,0.15-0.22,0.4-0.21,0.76c0.01,0.36,0.08,0.6,0.21,0.72c2.66-0.06,4.18-0.09,4.56-0.09c0.29,0,1.8,0.03,4.52,0.09
		C377.65,30.97,377.71,30.73,377.7,30.37z"/>
	<path class="st0" d="M413.27,28.99c-0.41,0.4-1.38,0.62-2.89,0.67c-0.13,0.14-0.2,0.38-0.2,0.73c0,0.34,0.07,0.57,0.2,0.69
		c2.65-0.06,4.41-0.08,5.28-0.08c0.28,0,1.18,0.01,2.71,0.04c1.52,0.03,3.1,0.04,4.74,0.04c1.58,0,3.1-0.2,4.55-0.59
		s2.87-1.04,4.24-1.93c1.37-0.9,2.48-2.21,3.3-3.95c0.83-1.73,1.25-3.8,1.25-6.19c0-3.81-1.37-7.07-4.1-9.77
		c-2.73-2.7-6.06-4.05-9.97-4.05c-0.96,0-2.21,0.01-3.77,0.04c-1.55,0.03-2.55,0.04-2.99,0.04c-0.78,0-2.53-0.03-5.24-0.08
		c-0.13,0.14-0.2,0.39-0.2,0.74c0,0.35,0.07,0.58,0.2,0.7c1.51,0.05,2.48,0.28,2.89,0.66c0.41,0.39,0.62,1.39,0.62,3.02v16.25
		C413.89,27.59,413.69,28.6,413.27,28.99z M417.4,8.05c0-1.32,1.14-1.98,3.42-1.98c2.1,0,3.93,0.39,5.5,1.17
		c1.57,0.78,2.8,1.83,3.67,3.16c0.88,1.33,1.52,2.74,1.92,4.26c0.4,1.51,0.61,3.09,0.61,4.74c0,1.98-0.28,3.66-0.84,5.04
		c-0.56,1.38-1.35,2.43-2.39,3.16c-1.04,0.73-2.15,1.24-3.34,1.55c-1.19,0.31-2.57,0.47-4.12,0.47c-1.84,0-3.04-0.16-3.6-0.49
		c-0.56-0.32-0.84-0.85-0.84-1.57V8.05z"/>
	<path class="st0" d="M454.04,28.94c-0.41,0.39-1.38,0.62-2.89,0.67c-0.13,0.15-0.2,0.4-0.2,0.76c0,0.36,0.07,0.6,0.2,0.72
		c1.32-0.03,3.08-0.05,5.28-0.08h8.69c0.73,0,2.35,0.03,4.86,0.08c0.44-2.14,0.79-4.37,1.06-6.7c-0.43-0.21-0.87-0.28-1.34-0.2
		c-0.46,1.69-1.19,3-2.18,3.94c-0.99,0.94-2.48,1.4-4.47,1.4h-2.98c-0.6,0-1.06-0.18-1.4-0.55c-0.34-0.36-0.51-0.86-0.51-1.48V9.78
		c0-1.64,0.21-2.65,0.62-3.04c0.41-0.39,1.38-0.61,2.89-0.67c0.1-0.13,0.16-0.37,0.16-0.73c0-0.36-0.04-0.6-0.13-0.75
		c-2.66,0.06-4.44,0.09-5.31,0.09c-0.78,0-2.53-0.03-5.24-0.09c-0.13,0.14-0.2,0.4-0.2,0.76c0,0.36,0.07,0.6,0.2,0.72
		c1.51,0.05,2.47,0.27,2.89,0.66c0.41,0.39,0.62,1.39,0.62,3.01v16.18C454.66,27.54,454.45,28.54,454.04,28.94z"/>
	<path class="st0" d="M503.91,24.13c-0.97,3.6-2.74,5.4-5.32,5.4h-5.54c-0.97,0-1.45-0.59-1.45-1.77v-9.95h3.7
		c1.11,0,1.94,0.13,2.48,0.38c0.54,0.25,0.87,0.54,0.97,0.86c0.11,0.33,0.19,0.86,0.24,1.61c0.12,0.14,0.34,0.2,0.67,0.2
		c0.33,0,0.55-0.08,0.69-0.23c-0.05-1.9-0.08-3.09-0.08-3.58c0-0.72,0.03-1.91,0.08-3.56c-0.13-0.13-0.37-0.2-0.7-0.2
		c-0.33,0-0.55,0.07-0.66,0.2c-0.05,1.23-0.27,2.02-0.65,2.35c-0.38,0.33-1.39,0.5-3.05,0.5h-3.7V7.98c0-0.53,0.13-0.97,0.38-1.31
		s0.61-0.52,1.07-0.52h4.29c1.4,0,2.39,0.34,2.96,1.02c0.57,0.68,1.11,1.86,1.63,3.53c0.47,0.08,0.92,0.01,1.36-0.2
		c-0.4-2.98-0.7-4.94-0.92-5.86c0-0.08-0.05-0.12-0.16-0.12c-0.62,0.11-1.29,0.16-1.99,0.16h-10.4l-5.28-0.08
		c-0.11,0.14-0.16,0.39-0.16,0.76c0,0.36,0.05,0.6,0.16,0.72c1.53,0.05,2.5,0.27,2.93,0.66c0.43,0.39,0.64,1.39,0.64,3.01v16.18
		c0,1.62-0.21,2.62-0.63,3.02c-0.42,0.39-1.39,0.62-2.9,0.67c-0.11,0.15-0.16,0.4-0.16,0.76c0,0.36,0.05,0.6,0.16,0.72
		c1.34-0.03,3.1-0.05,5.3-0.08h8.76c1.3,0,3.04,0.03,5.21,0.08c0.68-2.37,1.18-4.62,1.51-6.75
		C504.88,24.09,504.4,24.02,503.91,24.13z"/>
	<path class="st0" d="M565.03,25.28c-1.44,1.58-2.9,2.73-4.39,3.43c-1.49,0.7-3.19,1.05-5.09,1.05c-2.01,0-3.74-0.63-5.19-1.89
		c-1.45-1.26-2.5-2.8-3.15-4.62c-0.65-1.82-0.98-3.79-0.98-5.89c0-1.72,0.21-3.26,0.64-4.63c0.43-1.37,1.02-2.53,1.8-3.47
		c1.97-2.42,4.14-3.63,6.52-3.63c4.58,0,7.55,2.29,8.94,6.87c0.39,0.13,0.84,0.07,1.35-0.2c-0.13-1.36-0.43-3.47-0.9-6.33
		c-0.28-0.03-1.35-0.33-3.22-0.93c-1.87-0.59-3.78-0.89-5.74-0.89c-3.27,0-6.15,1.15-8.64,3.46c-2.84,2.64-4.26,6.15-4.26,10.53
		c0,2.29,0.45,4.42,1.36,6.38s2.36,3.6,4.36,4.92c2,1.32,4.38,1.98,7.14,1.98c4.11,0,7.57-1.83,10.37-5.51
		C565.75,25.48,565.44,25.28,565.03,25.28z"/>
	<path class="st0" d="M593.87,4.14c-1.99,0-3.83,0.44-5.51,1.31c-1.68,0.88-3.09,2.1-4.23,3.66c-1.86,2.55-2.79,5.62-2.79,9.22
		c0,3.92,1.23,7.08,3.7,9.48c2.46,2.39,5.49,3.59,9.08,3.59c2.22,0,4.21-0.45,5.99-1.35c1.77-0.9,3.23-2.16,4.38-3.8
		c1.69-2.39,2.53-5.29,2.53-8.69c0-4.1-1.24-7.37-3.73-9.79C600.79,5.35,597.66,4.14,593.87,4.14z M600.8,26.78
		c-1.52,2.1-3.48,3.15-5.87,3.15c-2.64,0-4.92-1.11-6.83-3.34c-1.91-2.23-2.86-5.21-2.86-8.94c0-2.02,0.25-3.83,0.74-5.44
		c0.49-1.61,1.13-2.87,1.92-3.79c0.79-0.92,1.65-1.61,2.57-2.09c0.92-0.47,1.88-0.71,2.86-0.71c2.8,0,5.13,1.13,6.98,3.38
		c1.85,2.26,2.77,5.37,2.77,9.34C603.08,21.87,602.32,24.69,600.8,26.78z"/>
	<path class="st0" d="M625.55,27.71c-0.43-0.43-0.94-0.64-1.54-0.64c-0.6,0-1.11,0.21-1.52,0.64c-0.42,0.43-0.63,0.94-0.63,1.53
		c0,0.6,0.21,1.11,0.63,1.53c0.42,0.42,0.93,0.63,1.52,0.63c0.6,0,1.11-0.21,1.54-0.63c0.42-0.42,0.64-0.93,0.64-1.53
		C626.19,28.65,625.97,28.14,625.55,27.71z"/>
</g>
<g>
	<path class="st0" d="M623.67,10.24c-1.42,0-2.63-0.5-3.64-1.5c-1.01-1-1.52-2.2-1.52-3.59c0-1.41,0.51-2.6,1.53-3.59
		c1.02-0.99,2.23-1.48,3.63-1.48c1.4,0,2.61,0.5,3.63,1.49s1.53,2.19,1.53,3.59s-0.51,2.6-1.53,3.6S625.07,10.24,623.67,10.24z
		 M623.67,0.64c-1.26,0-2.31,0.43-3.16,1.31c-0.85,0.87-1.27,1.93-1.27,3.19c0,1.25,0.43,2.31,1.28,3.19
		c0.86,0.88,1.91,1.32,3.16,1.32c1.24,0,2.29-0.44,3.15-1.32c0.86-0.88,1.3-1.95,1.3-3.19c0-1.26-0.43-2.33-1.29-3.19
		C625.97,1.08,624.92,0.64,623.67,0.64z M622.63,2.68c0.08,0,0.29-0.01,0.61-0.02c0.33-0.01,0.55-0.02,0.68-0.02
		c0.6,0,1.03,0.14,1.3,0.41c0.27,0.28,0.41,0.59,0.41,0.93c0,0.33-0.1,0.62-0.29,0.84s-0.44,0.39-0.74,0.49l0.86,1.48
		c0.21,0.35,0.46,0.49,0.77,0.43c0.07,0.07,0.09,0.17,0.07,0.31c-0.21,0.08-0.42,0.12-0.64,0.12c-0.47,0-0.83-0.23-1.1-0.69
		l-0.86-1.44c-0.06-0.05-0.28-0.07-0.67-0.07v1.01c0,0.29,0.04,0.48,0.13,0.57s0.28,0.15,0.59,0.17c0.04,0.04,0.05,0.11,0.05,0.22
		s-0.02,0.18-0.05,0.21c-0.43-0.02-0.81-0.04-1.13-0.04c-0.33,0-0.72,0.01-1.15,0.04c-0.04-0.04-0.05-0.11-0.06-0.21
		c0-0.11,0.02-0.18,0.06-0.22c0.3-0.02,0.49-0.08,0.58-0.17s0.13-0.28,0.13-0.57V3.82c0-0.29-0.04-0.48-0.13-0.57
		s-0.28-0.15-0.58-0.17c-0.04-0.04-0.05-0.11-0.06-0.21c0-0.11,0.02-0.18,0.06-0.22C621.91,2.67,622.3,2.68,622.63,2.68z
		 M624.66,3.99c0-0.61-0.3-0.91-0.9-0.91c-0.22,0-0.39,0.06-0.52,0.18c-0.13,0.12-0.2,0.26-0.2,0.43v1.35h0.76
		c0.29,0,0.5-0.08,0.65-0.22C624.59,4.66,624.66,4.39,624.66,3.99z"/>
</g>
</svg>
